<!-- Logo -->

<svg width="234" height="234" viewBox="0 0 234 234" fill="none" xmlns="http://www.w3.org/2000/svg">
<rect width="234" height="234" rx="72" fill="#0A77AF"/>
<path fill-rule="evenodd" clip-rule="evenodd" d="M37.1682 58.5529C40.3417 56.9246 44.1618 57.2012 47.0661 59.2696L110.252 104.27C114.534 107.319 115.526 113.252 112.467 117.522C109.409 121.791 103.458 122.78 99.1758 119.731L51.056 85.4603V167.5C51.056 172.747 46.7902 177 41.528 177C36.2658 177 32 172.747 32 167.5V67C32 63.4415 33.9947 60.1813 37.1682 58.5529Z" fill="#51DCFA"/>
<path fill-rule="evenodd" clip-rule="evenodd" d="M198.708 59.7825C202.429 63.4925 202.429 69.5075 198.708 73.2175L97.4099 174.218C93.689 177.927 87.6562 177.927 83.9352 174.218C80.2143 170.508 80.2143 164.492 83.9352 160.782L185.233 59.7825C188.954 56.0725 194.987 56.0725 198.708 59.7825Z" fill="#51DCFA"/>
<path fill-rule="evenodd" clip-rule="evenodd" d="M181.44 147.5C176.731 147.5 172.914 151.306 172.914 156C172.914 160.694 176.731 164.5 181.44 164.5C186.148 164.5 189.965 160.694 189.965 156C189.965 151.306 186.148 147.5 181.44 147.5ZM160.879 156C160.879 144.678 170.084 135.5 181.44 135.5C192.795 135.5 202 144.678 202 156C202 167.322 192.795 176.5 181.44 176.5C170.084 176.5 160.879 167.322 160.879 156Z" fill="#51DCFA"/>
</svg>
