<svg width="698" height="172" fill="none" xmlns="http://www.w3.org/2000/svg"><path d="M0 52.923C0 23.694 23.695 0 52.923 0h66.154C148.306 0 172 23.695 172 52.923v66.154C172 148.306 148.306 172 119.077 172H52.923C23.694 172 0 148.306 0 119.077V52.923z" fill="#0A77AF"/><path fill-rule="evenodd" clip-rule="evenodd" d="M27.32 43.039a7.02 7.02 0 017.276.527L81.04 76.643a6.97 6.97 0 011.628 9.74c-2.248 3.139-6.622 3.866-9.77 1.624l-35.37-25.19v60.303c0 3.856-3.135 6.983-7.003 6.983-3.868 0-7.003-3.127-7.003-6.983V49.248a6.98 6.98 0 013.798-6.21zM146.059 43.943a6.968 6.968 0 010 9.875l-74.458 74.239a7.018 7.018 0 01-9.905 0 6.968 6.968 0 010-9.875l74.458-74.24a7.019 7.019 0 019.905 0zM133.366 108.419c-3.461 0-6.266 2.797-6.266 6.248 0 3.45 2.805 6.248 6.266 6.248s6.266-2.798 6.266-6.248c0-3.451-2.805-6.248-6.266-6.248zm-15.113 6.248c0-8.322 6.766-15.069 15.113-15.069s15.113 6.747 15.113 15.069c0 8.322-6.766 15.068-15.113 15.068s-15.113-6.746-15.113-15.068z" fill="#51DCFA"/><path d="M271.635 75.598l-18.54-53.114h-.35c.496 7.888.744 15.283.744 22.185v30.929H244V12h14.736l17.753 50.591h.262L295.029 12h14.779v63.598h-10.057V44.147c0-3.161.073-7.28.219-12.354.175-5.075.321-8.15.437-9.222h-.35l-19.196 53.027h-9.226zM355.809 75.598l-2.055-6.7h-.35c-2.332 2.93-4.679 4.93-7.04 6.004-2.361 1.044-5.393 1.566-9.095 1.566-4.752 0-8.469-1.276-11.151-3.828-2.652-2.552-3.979-6.163-3.979-10.832 0-4.959 1.851-8.7 5.554-11.223 3.702-2.523 9.343-3.9 16.922-4.133l8.352-.26v-2.567c0-3.074-.729-5.365-2.187-6.873-1.428-1.537-3.658-2.306-6.69-2.306-2.478 0-4.854.363-7.127 1.088a53.948 53.948 0 00-6.559 2.566l-3.324-7.308c2.624-1.363 5.495-2.392 8.615-3.088 3.119-.725 6.063-1.088 8.832-1.088 6.151 0 10.786 1.334 13.905 4.002 3.149 2.668 4.723 6.859 4.723 12.572v32.408h-7.346zm-15.305-6.96c3.732 0 6.72-1.03 8.964-3.089 2.274-2.088 3.411-5.002 3.411-8.744V52.63l-6.209.26c-4.839.175-8.366.986-10.582 2.437-2.186 1.42-3.279 3.61-3.279 6.568 0 2.146.641 3.814 1.924 5.003 1.282 1.16 3.206 1.74 5.771 1.74zM370.151 27.486h11.194l9.839 27.275c1.486 3.886 2.477 7.54 2.973 10.962h.35c.262-1.595.743-3.523 1.443-5.785.699-2.291 4.402-13.109 11.106-32.452h11.107L397.48 81.992C393.72 91.997 387.452 97 378.678 97c-2.274 0-4.489-.246-6.647-.74v-8.09c1.545.347 3.309.521 5.291.521 4.956 0 8.439-2.856 10.451-8.57l1.793-4.523-19.415-48.112zM459.616 75.598l-1.443-6.308h-.525c-1.429 2.233-3.469 3.988-6.122 5.264-2.623 1.276-5.626 1.914-9.007 1.914-5.86 0-10.233-1.45-13.118-4.35-2.886-2.9-4.329-7.294-4.329-13.181v-31.45h10.363v29.667c0 3.683.758 6.452 2.274 8.308 1.515 1.827 3.891 2.74 7.127 2.74 4.314 0 7.477-1.275 9.489-3.827 2.04-2.581 3.061-6.888 3.061-12.92V27.486h10.319v48.112h-8.089zM506.884 26.616c2.07 0 3.775.145 5.116.435l-1.006 9.527a19.51 19.51 0 00-4.547-.522c-4.111 0-7.448 1.334-10.014 4.002-2.536 2.668-3.804 6.133-3.804 10.397v25.143h-10.276V27.486h8.046l1.356 8.483h.524c1.604-2.871 3.688-5.148 6.253-6.83 2.595-1.682 5.379-2.523 8.352-2.523zM296.105 126.507c0 10.566-2.936 18.651-8.808 24.255-5.873 5.575-14.33 8.362-25.374 8.362H244V95.116h19.808c10.196 0 18.128 2.743 23.795 8.23 5.668 5.488 8.502 13.208 8.502 23.161zm-11.043.35c0-15.323-7.173-22.985-21.517-22.985h-9.071v46.452h7.449c15.426 0 23.139-7.822 23.139-23.467zM329.98 160c-7.538 0-13.439-2.189-17.705-6.567-4.236-4.408-6.354-10.464-6.354-18.17 0-7.91 1.972-14.127 5.916-18.651 3.944-4.524 9.363-6.786 16.258-6.786 6.398 0 11.452 1.941 15.163 5.823 3.71 3.882 5.565 9.223 5.565 16.024v5.561h-32.297c.146 4.699 1.417 8.318 3.813 10.857 2.395 2.511 5.77 3.766 10.123 3.766 2.863 0 5.521-.263 7.975-.788 2.484-.555 5.142-1.46 7.976-2.715v8.362c-2.513 1.197-5.054 2.044-7.625 2.54-2.571.496-5.507.744-8.808.744zm-1.885-42.381c-3.272 0-5.901 1.036-7.888 3.109-1.957 2.072-3.126 5.093-3.506 9.063H338.7c-.058-3.999-1.022-7.02-2.892-9.063-1.87-2.073-4.441-3.109-7.713-3.109zM393.084 145.333c0 4.729-1.724 8.362-5.171 10.902-3.448 2.51-8.385 3.765-14.812 3.765-6.457 0-11.642-.978-15.557-2.933v-8.888c5.697 2.627 10.999 3.94 15.907 3.94 6.34 0 9.51-1.912 9.51-5.735 0-1.226-.351-2.248-1.052-3.065-.701-.817-1.855-1.664-3.462-2.539-1.607-.876-3.842-1.868-6.705-2.977-5.58-2.16-9.363-4.32-11.35-6.48-1.957-2.16-2.936-4.962-2.936-8.406 0-4.145 1.665-7.355 4.996-9.632 3.36-2.306 7.917-3.459 13.673-3.459 5.696 0 11.087 1.153 16.17 3.459l-3.331 7.749c-5.229-2.16-9.626-3.24-13.19-3.24-5.434 0-8.151 1.547-8.151 4.641 0 1.518.701 2.802 2.103 3.853 1.432 1.051 4.529 2.496 9.291 4.334 4.002 1.547 6.909 2.963 8.72 4.247 1.812 1.285 3.156 2.773 4.032 4.466.877 1.664 1.315 3.663 1.315 5.998zM446.898 159.124h-10.342v-29.771c0-3.736-.76-6.524-2.279-8.363-1.49-1.838-3.871-2.758-7.143-2.758-4.324 0-7.508 1.299-9.554 3.897-2.015 2.568-3.023 6.888-3.023 12.959v24.036h-10.299V91h10.299v17.294c0 2.773-.176 5.735-.526 8.887h.657c1.403-2.335 3.345-4.144 5.829-5.428 2.512-1.285 5.434-1.927 8.764-1.927 11.744 0 17.617 5.911 17.617 17.732v31.566zM502.07 159.124h-10.342v-29.859c0-3.707-.701-6.465-2.103-8.275-1.403-1.838-3.594-2.758-6.574-2.758-3.973 0-6.895 1.299-8.764 3.897-1.841 2.568-2.761 6.859-2.761 12.872v24.123h-10.298v-48.422h8.063l1.446 6.348h.526c1.344-2.306 3.287-4.086 5.828-5.341 2.571-1.255 5.39-1.883 8.458-1.883 7.45 0 12.387 2.539 14.812 7.618h.701c1.432-2.393 3.448-4.261 6.048-5.604s5.58-2.014 8.939-2.014c5.785 0 9.992 1.46 12.621 4.378 2.659 2.919 3.988 7.37 3.988 13.354v31.566H522.36v-29.859c0-3.707-.716-6.465-2.147-8.275-1.403-1.838-3.594-2.758-6.574-2.758-4.002 0-6.938 1.255-8.808 3.765-1.841 2.481-2.761 6.305-2.761 11.471v25.656zM581.213 159.124l-1.446-6.348h-.526c-1.431 2.247-3.476 4.013-6.135 5.298-2.629 1.284-5.638 1.926-9.027 1.926-5.872 0-10.255-1.459-13.147-4.378-2.892-2.919-4.338-7.341-4.338-13.266v-31.654h10.386v29.859c0 3.707.759 6.494 2.278 8.362 1.519 1.839 3.9 2.758 7.143 2.758 4.324 0 7.494-1.284 9.51-3.852 2.045-2.598 3.067-6.932 3.067-13.003v-24.124h10.342v48.422h-8.107zM613.949 133.556l5.828-7.268 14.637-15.586h11.876l-19.501 20.796 20.728 27.626h-12.095l-15.557-21.234-5.653 4.641v16.593h-10.211V91h10.211v33.23l-.526 9.326h.263zM698 159.124h-10.342v-29.771c0-3.736-.76-6.524-2.279-8.363-1.49-1.838-3.871-2.758-7.143-2.758-4.324 0-7.508 1.299-9.553 3.897-2.016 2.568-3.024 6.888-3.024 12.959v24.036h-10.298V91h10.298v17.294c0 2.773-.175 5.735-.526 8.887h.658c1.402-2.335 3.345-4.144 5.828-5.428 2.512-1.285 5.434-1.927 8.764-1.927 11.745 0 17.617 5.911 17.617 17.732v31.566z" fill="#F2F9FF"/></svg>